<?xml version="1.0" encoding="UTF-8" standalone="no"?>
<!DOCTYPE svg PUBLIC "-//W3C//DTD SVG 1.1//EN"
 "http://www.w3.org/Graphics/SVG/1.1/DTD/svg11.dtd">
<!-- Generated by graphviz version 2.43.0 (0)
 -->
<!-- Title: %3 Pages: 1 -->
<svg width="4132pt" height="476pt"
 viewBox="0.00 0.00 4132.18 476.00" xmlns="http://www.w3.org/2000/svg" xmlns:xlink="http://www.w3.org/1999/xlink">
<g id="graph0" class="graph" transform="scale(1 1) rotate(0) translate(4 472)">
<title>%3</title>
<polygon fill="white" stroke="transparent" points="-4,4 -4,-472 4128.18,-472 4128.18,4 -4,4"/>
<!-- [root] module.google_computer_instance.google_compute_instance.vm_instance (expand) -->
<g id="node1" class="node">
<title>[root] module.google_computer_instance.google_compute_instance.vm_instance (expand)</title>
<polygon fill="none" stroke="black" points="2337.76,-180 1795.76,-180 1795.76,-144 2337.76,-144 2337.76,-180"/>
<text text-anchor="middle" x="2066.76" y="-158.3" font-family="Times,serif" font-size="14.00">module.google_computer_instance.google_compute_instance.vm_instance</text>
</g>
<!-- [root] provider[&quot;registry.terraform.io/hashicorp/google&quot;] -->
<g id="node3" class="node">
<title>[root] provider[&quot;registry.terraform.io/hashicorp/google&quot;]</title>
<polygon fill="none" stroke="black" points="343.76,-108 0.24,-90 343.76,-72 687.29,-90 343.76,-108"/>
<text text-anchor="middle" x="343.76" y="-86.3" font-family="Times,serif" font-size="14.00">provider[&quot;registry.terraform.io/hashicorp/google&quot;]</text>
</g>
<!-- [root] module.google_computer_instance.google_compute_instance.vm_instance (expand)&#45;&gt;[root] provider[&quot;registry.terraform.io/hashicorp/google&quot;] -->
<g id="edge9" class="edge">
<title>[root] module.google_computer_instance.google_compute_instance.vm_instance (expand)&#45;&gt;[root] provider[&quot;registry.terraform.io/hashicorp/google&quot;]</title>
<path fill="none" stroke="black" d="M1795.75,-151.27C1519.35,-141.17 1078.14,-124.56 696.76,-108 639.23,-105.5 576.43,-102.55 519.96,-99.81"/>
<polygon fill="black" stroke="black" points="520.02,-96.31 509.86,-99.32 519.68,-103.3 520.02,-96.31"/>
</g>
<!-- [root] module.google_computer_instance.var.boot_image (expand) -->
<g id="node12" class="node">
<title>[root] module.google_computer_instance.var.boot_image (expand)</title>
<ellipse fill="none" stroke="black" cx="1021.76" cy="-90" rx="315.74" ry="18"/>
<text text-anchor="middle" x="1021.76" y="-86.3" font-family="Times,serif" font-size="14.00">[root] module.google_computer_instance.var.boot_image (expand)</text>
</g>
<!-- [root] module.google_computer_instance.google_compute_instance.vm_instance (expand)&#45;&gt;[root] module.google_computer_instance.var.boot_image (expand) -->
<g id="edge4" class="edge">
<title>[root] module.google_computer_instance.google_compute_instance.vm_instance (expand)&#45;&gt;[root] module.google_computer_instance.var.boot_image (expand)</title>
<path fill="none" stroke="black" d="M1812.8,-143.99C1633.27,-131.96 1395.65,-116.04 1227.86,-104.81"/>
<polygon fill="black" stroke="black" points="1227.88,-101.3 1217.66,-104.12 1227.41,-108.28 1227.88,-101.3"/>
</g>
<!-- [root] module.google_computer_instance.var.gce_ssh_pub_key_file (expand) -->
<g id="node13" class="node">
<title>[root] module.google_computer_instance.var.gce_ssh_pub_key_file (expand)</title>
<ellipse fill="none" stroke="black" cx="1715.76" cy="-90" rx="360.14" ry="18"/>
<text text-anchor="middle" x="1715.76" y="-86.3" font-family="Times,serif" font-size="14.00">[root] module.google_computer_instance.var.gce_ssh_pub_key_file (expand)</text>
</g>
<!-- [root] module.google_computer_instance.google_compute_instance.vm_instance (expand)&#45;&gt;[root] module.google_computer_instance.var.gce_ssh_pub_key_file (expand) -->
<g id="edge5" class="edge">
<title>[root] module.google_computer_instance.google_compute_instance.vm_instance (expand)&#45;&gt;[root] module.google_computer_instance.var.gce_ssh_pub_key_file (expand)</title>
<path fill="none" stroke="black" d="M1981.35,-143.97C1929.1,-133.55 1862.24,-120.21 1808.67,-109.53"/>
<polygon fill="black" stroke="black" points="1809.32,-106.09 1798.83,-107.57 1807.96,-112.95 1809.32,-106.09"/>
</g>
<!-- [root] module.google_computer_instance.var.gce_ssh_user (expand) -->
<g id="node14" class="node">
<title>[root] module.google_computer_instance.var.gce_ssh_user (expand)</title>
<ellipse fill="none" stroke="black" cx="2417.76" cy="-90" rx="323.84" ry="18"/>
<text text-anchor="middle" x="2417.76" y="-86.3" font-family="Times,serif" font-size="14.00">[root] module.google_computer_instance.var.gce_ssh_user (expand)</text>
</g>
<!-- [root] module.google_computer_instance.google_compute_instance.vm_instance (expand)&#45;&gt;[root] module.google_computer_instance.var.gce_ssh_user (expand) -->
<g id="edge6" class="edge">
<title>[root] module.google_computer_instance.google_compute_instance.vm_instance (expand)&#45;&gt;[root] module.google_computer_instance.var.gce_ssh_user (expand)</title>
<path fill="none" stroke="black" d="M2152.18,-143.97C2204.62,-133.51 2271.78,-120.11 2325.44,-109.41"/>
<polygon fill="black" stroke="black" points="2326.18,-112.83 2335.3,-107.45 2324.81,-105.97 2326.18,-112.83"/>
</g>
<!-- [root] module.google_computer_instance.var.machine_type (expand) -->
<g id="node15" class="node">
<title>[root] module.google_computer_instance.var.machine_type (expand)</title>
<ellipse fill="none" stroke="black" cx="3086.76" cy="-90" rx="326.84" ry="18"/>
<text text-anchor="middle" x="3086.76" y="-86.3" font-family="Times,serif" font-size="14.00">[root] module.google_computer_instance.var.machine_type (expand)</text>
</g>
<!-- [root] module.google_computer_instance.google_compute_instance.vm_instance (expand)&#45;&gt;[root] module.google_computer_instance.var.machine_type (expand) -->
<g id="edge7" class="edge">
<title>[root] module.google_computer_instance.google_compute_instance.vm_instance (expand)&#45;&gt;[root] module.google_computer_instance.var.machine_type (expand)</title>
<path fill="none" stroke="black" d="M2314.65,-143.99C2488.22,-132.08 2717.39,-116.35 2880.89,-105.13"/>
<polygon fill="black" stroke="black" points="2881.33,-108.61 2891.07,-104.43 2880.85,-101.62 2881.33,-108.61"/>
</g>
<!-- [root] module.google_computer_instance.var.network_interface (expand) -->
<g id="node16" class="node">
<title>[root] module.google_computer_instance.var.network_interface (expand)</title>
<ellipse fill="none" stroke="black" cx="3777.76" cy="-90" rx="346.34" ry="18"/>
<text text-anchor="middle" x="3777.76" y="-86.3" font-family="Times,serif" font-size="14.00">[root] module.google_computer_instance.var.network_interface (expand)</text>
</g>
<!-- [root] module.google_computer_instance.google_compute_instance.vm_instance (expand)&#45;&gt;[root] module.google_computer_instance.var.network_interface (expand) -->
<g id="edge8" class="edge">
<title>[root] module.google_computer_instance.google_compute_instance.vm_instance (expand)&#45;&gt;[root] module.google_computer_instance.var.network_interface (expand)</title>
<path fill="none" stroke="black" d="M2337.9,-151.1C2611.65,-140.95 3046.61,-124.36 3422.76,-108 3455.87,-106.56 3490.7,-104.98 3525.09,-103.37"/>
<polygon fill="black" stroke="black" points="3525.43,-106.86 3535.25,-102.9 3525.1,-99.87 3525.43,-106.86"/>
</g>
<!-- [root] output.network -->
<g id="node2" class="node">
<title>[root] output.network</title>
<polygon fill="none" stroke="black" points="1793.26,-324 1672.26,-324 1672.26,-288 1799.26,-288 1799.26,-318 1793.26,-324"/>
<polyline fill="none" stroke="black" points="1793.26,-324 1793.26,-318 "/>
<polyline fill="none" stroke="black" points="1799.26,-318 1793.26,-318 "/>
<text text-anchor="middle" x="1735.76" y="-302.3" font-family="Times,serif" font-size="14.00">output.network</text>
</g>
<!-- [root] module.google_computer_instance.output.vm_public_ip (expand) -->
<g id="node11" class="node">
<title>[root] module.google_computer_instance.output.vm_public_ip (expand)</title>
<ellipse fill="none" stroke="black" cx="1735.76" cy="-234" rx="339.04" ry="18"/>
<text text-anchor="middle" x="1735.76" y="-230.3" font-family="Times,serif" font-size="14.00">[root] module.google_computer_instance.output.vm_public_ip (expand)</text>
</g>
<!-- [root] output.network&#45;&gt;[root] module.google_computer_instance.output.vm_public_ip (expand) -->
<g id="edge21" class="edge">
<title>[root] output.network&#45;&gt;[root] module.google_computer_instance.output.vm_public_ip (expand)</title>
<path fill="none" stroke="black" d="M1735.76,-287.7C1735.76,-279.98 1735.76,-270.71 1735.76,-262.11"/>
<polygon fill="black" stroke="black" points="1739.26,-262.1 1735.76,-252.1 1732.26,-262.1 1739.26,-262.1"/>
</g>
<!-- [root] var.boot_image -->
<g id="node4" class="node">
<title>[root] var.boot_image</title>
<polygon fill="none" stroke="black" points="1078.26,-36 959.26,-36 959.26,0 1084.26,0 1084.26,-30 1078.26,-36"/>
<polyline fill="none" stroke="black" points="1078.26,-36 1078.26,-30 "/>
<polyline fill="none" stroke="black" points="1084.26,-30 1078.26,-30 "/>
<text text-anchor="middle" x="1021.76" y="-14.3" font-family="Times,serif" font-size="14.00">var.boot_image</text>
</g>
<!-- [root] var.machine_type -->
<g id="node5" class="node">
<title>[root] var.machine_type</title>
<polygon fill="none" stroke="black" points="3151.26,-36 3016.26,-36 3016.26,0 3157.26,0 3157.26,-30 3151.26,-36"/>
<polyline fill="none" stroke="black" points="3151.26,-36 3151.26,-30 "/>
<polyline fill="none" stroke="black" points="3157.26,-30 3151.26,-30 "/>
<text text-anchor="middle" x="3086.76" y="-14.3" font-family="Times,serif" font-size="14.00">var.machine_type</text>
</g>
<!-- [root] var.network -->
<g id="node6" class="node">
<title>[root] var.network</title>
<polygon fill="none" stroke="black" points="3822.26,-36 3727.26,-36 3727.26,0 3828.26,0 3828.26,-30 3822.26,-36"/>
<polyline fill="none" stroke="black" points="3822.26,-36 3822.26,-30 "/>
<polyline fill="none" stroke="black" points="3828.26,-30 3822.26,-30 "/>
<text text-anchor="middle" x="3777.76" y="-14.3" font-family="Times,serif" font-size="14.00">var.network</text>
</g>
<!-- [root] var.ssh_pub_key -->
<g id="node7" class="node">
<title>[root] var.ssh_pub_key</title>
<polygon fill="none" stroke="black" points="1775.76,-36 1649.76,-36 1649.76,0 1781.76,0 1781.76,-30 1775.76,-36"/>
<polyline fill="none" stroke="black" points="1775.76,-36 1775.76,-30 "/>
<polyline fill="none" stroke="black" points="1781.76,-30 1775.76,-30 "/>
<text text-anchor="middle" x="1715.76" y="-14.3" font-family="Times,serif" font-size="14.00">var.ssh_pub_key</text>
</g>
<!-- [root] var.ssh_user -->
<g id="node8" class="node">
<title>[root] var.ssh_user</title>
<polygon fill="none" stroke="black" points="2621.26,-36 2522.26,-36 2522.26,0 2627.26,0 2627.26,-30 2621.26,-36"/>
<polyline fill="none" stroke="black" points="2621.26,-36 2621.26,-30 "/>
<polyline fill="none" stroke="black" points="2627.26,-30 2621.26,-30 "/>
<text text-anchor="middle" x="2574.76" y="-14.3" font-family="Times,serif" font-size="14.00">var.ssh_user</text>
</g>
<!-- [root] meta.count&#45;boundary (EachMode fixup) -->
<g id="node9" class="node">
<title>[root] meta.count&#45;boundary (EachMode fixup)</title>
<ellipse fill="none" stroke="black" cx="2049.76" cy="-378" rx="222.86" ry="18"/>
<text text-anchor="middle" x="2049.76" y="-374.3" font-family="Times,serif" font-size="14.00">[root] meta.count&#45;boundary (EachMode fixup)</text>
</g>
<!-- [root] meta.count&#45;boundary (EachMode fixup)&#45;&gt;[root] output.network -->
<g id="edge2" class="edge">
<title>[root] meta.count&#45;boundary (EachMode fixup)&#45;&gt;[root] output.network</title>
<path fill="none" stroke="black" d="M1975.29,-361.02C1929.83,-351.18 1870.27,-338.17 1809.17,-324.3"/>
<polygon fill="black" stroke="black" points="1809.88,-320.88 1799.36,-322.07 1808.33,-327.7 1809.88,-320.88"/>
</g>
<!-- [root] module.google_computer_instance (close) -->
<g id="node10" class="node">
<title>[root] module.google_computer_instance (close)</title>
<ellipse fill="none" stroke="black" cx="2049.76" cy="-306" rx="232.86" ry="18"/>
<text text-anchor="middle" x="2049.76" y="-302.3" font-family="Times,serif" font-size="14.00">[root] module.google_computer_instance (close)</text>
</g>
<!-- [root] meta.count&#45;boundary (EachMode fixup)&#45;&gt;[root] module.google_computer_instance (close) -->
<g id="edge1" class="edge">
<title>[root] meta.count&#45;boundary (EachMode fixup)&#45;&gt;[root] module.google_computer_instance (close)</title>
<path fill="none" stroke="black" d="M2049.76,-359.7C2049.76,-351.98 2049.76,-342.71 2049.76,-334.11"/>
<polygon fill="black" stroke="black" points="2053.26,-334.1 2049.76,-324.1 2046.26,-334.1 2053.26,-334.1"/>
</g>
<!-- [root] module.google_computer_instance (close)&#45;&gt;[root] module.google_computer_instance.output.vm_public_ip (expand) -->
<g id="edge3" class="edge">
<title>[root] module.google_computer_instance (close)&#45;&gt;[root] module.google_computer_instance.output.vm_public_ip (expand)</title>
<path fill="none" stroke="black" d="M1977.33,-288.85C1930.48,-278.41 1869.31,-264.77 1820.25,-253.83"/>
<polygon fill="black" stroke="black" points="1820.81,-250.37 1810.29,-251.61 1819.29,-257.21 1820.81,-250.37"/>
</g>
<!-- [root] module.google_computer_instance.output.vm_public_ip (expand)&#45;&gt;[root] module.google_computer_instance.google_compute_instance.vm_instance (expand) -->
<g id="edge10" class="edge">
<title>[root] module.google_computer_instance.output.vm_public_ip (expand)&#45;&gt;[root] module.google_computer_instance.google_compute_instance.vm_instance (expand)</title>
<path fill="none" stroke="black" d="M1814.21,-216.41C1862.87,-206.12 1925.56,-192.86 1976.31,-182.13"/>
<polygon fill="black" stroke="black" points="1977.24,-185.51 1986.3,-180.02 1975.79,-178.66 1977.24,-185.51"/>
</g>
<!-- [root] module.google_computer_instance.var.boot_image (expand)&#45;&gt;[root] var.boot_image -->
<g id="edge12" class="edge">
<title>[root] module.google_computer_instance.var.boot_image (expand)&#45;&gt;[root] var.boot_image</title>
<path fill="none" stroke="black" d="M1021.76,-71.7C1021.76,-63.98 1021.76,-54.71 1021.76,-46.11"/>
<polygon fill="black" stroke="black" points="1025.26,-46.1 1021.76,-36.1 1018.26,-46.1 1025.26,-46.1"/>
</g>
<!-- [root] module.google_computer_instance (expand) -->
<g id="node17" class="node">
<title>[root] module.google_computer_instance (expand)</title>
<ellipse fill="none" stroke="black" cx="2260.76" cy="-18" rx="243.16" ry="18"/>
<text text-anchor="middle" x="2260.76" y="-14.3" font-family="Times,serif" font-size="14.00">[root] module.google_computer_instance (expand)</text>
</g>
<!-- [root] module.google_computer_instance.var.boot_image (expand)&#45;&gt;[root] module.google_computer_instance (expand) -->
<g id="edge11" class="edge">
<title>[root] module.google_computer_instance.var.boot_image (expand)&#45;&gt;[root] module.google_computer_instance (expand)</title>
<path fill="none" stroke="black" d="M1237.23,-76.83C1470.18,-63.67 1838.33,-42.87 2063.81,-30.13"/>
<polygon fill="black" stroke="black" points="2064.32,-33.6 2074.1,-29.55 2063.92,-26.62 2064.32,-33.6"/>
</g>
<!-- [root] module.google_computer_instance.var.gce_ssh_pub_key_file (expand)&#45;&gt;[root] var.ssh_pub_key -->
<g id="edge14" class="edge">
<title>[root] module.google_computer_instance.var.gce_ssh_pub_key_file (expand)&#45;&gt;[root] var.ssh_pub_key</title>
<path fill="none" stroke="black" d="M1715.76,-71.7C1715.76,-63.98 1715.76,-54.71 1715.76,-46.11"/>
<polygon fill="black" stroke="black" points="1719.26,-46.1 1715.76,-36.1 1712.26,-46.1 1719.26,-46.1"/>
</g>
<!-- [root] module.google_computer_instance.var.gce_ssh_pub_key_file (expand)&#45;&gt;[root] module.google_computer_instance (expand) -->
<g id="edge13" class="edge">
<title>[root] module.google_computer_instance.var.gce_ssh_pub_key_file (expand)&#45;&gt;[root] module.google_computer_instance (expand)</title>
<path fill="none" stroke="black" d="M1839.77,-73.07C1928.09,-61.73 2046.37,-46.54 2135.06,-35.15"/>
<polygon fill="black" stroke="black" points="2135.71,-38.59 2145.18,-33.85 2134.82,-31.65 2135.71,-38.59"/>
</g>
<!-- [root] module.google_computer_instance.var.gce_ssh_user (expand)&#45;&gt;[root] var.ssh_user -->
<g id="edge16" class="edge">
<title>[root] module.google_computer_instance.var.gce_ssh_user (expand)&#45;&gt;[root] var.ssh_user</title>
<path fill="none" stroke="black" d="M2455.77,-72.05C2477.31,-62.45 2504.44,-50.35 2527.36,-40.14"/>
<polygon fill="black" stroke="black" points="2528.86,-43.3 2536.57,-36.03 2526.01,-36.91 2528.86,-43.3"/>
</g>
<!-- [root] module.google_computer_instance.var.gce_ssh_user (expand)&#45;&gt;[root] module.google_computer_instance (expand) -->
<g id="edge15" class="edge">
<title>[root] module.google_computer_instance.var.gce_ssh_user (expand)&#45;&gt;[root] module.google_computer_instance (expand)</title>
<path fill="none" stroke="black" d="M2379.76,-72.05C2358.06,-62.38 2330.69,-50.18 2307.66,-39.91"/>
<polygon fill="black" stroke="black" points="2308.98,-36.66 2298.42,-35.79 2306.13,-43.06 2308.98,-36.66"/>
</g>
<!-- [root] module.google_computer_instance.var.machine_type (expand)&#45;&gt;[root] var.machine_type -->
<g id="edge18" class="edge">
<title>[root] module.google_computer_instance.var.machine_type (expand)&#45;&gt;[root] var.machine_type</title>
<path fill="none" stroke="black" d="M3086.76,-71.7C3086.76,-63.98 3086.76,-54.71 3086.76,-46.11"/>
<polygon fill="black" stroke="black" points="3090.26,-46.1 3086.76,-36.1 3083.26,-46.1 3090.26,-46.1"/>
</g>
<!-- [root] module.google_computer_instance.var.machine_type (expand)&#45;&gt;[root] module.google_computer_instance (expand) -->
<g id="edge17" class="edge">
<title>[root] module.google_computer_instance.var.machine_type (expand)&#45;&gt;[root] module.google_computer_instance (expand)</title>
<path fill="none" stroke="black" d="M2916.87,-74.6C2772.53,-62.37 2566.69,-44.93 2424.23,-32.85"/>
<polygon fill="black" stroke="black" points="2424.34,-29.35 2414.08,-31.99 2423.75,-36.32 2424.34,-29.35"/>
</g>
<!-- [root] module.google_computer_instance.var.network_interface (expand)&#45;&gt;[root] var.network -->
<g id="edge20" class="edge">
<title>[root] module.google_computer_instance.var.network_interface (expand)&#45;&gt;[root] var.network</title>
<path fill="none" stroke="black" d="M3777.76,-71.7C3777.76,-63.98 3777.76,-54.71 3777.76,-46.11"/>
<polygon fill="black" stroke="black" points="3781.26,-46.1 3777.76,-36.1 3774.26,-46.1 3781.26,-46.1"/>
</g>
<!-- [root] module.google_computer_instance.var.network_interface (expand)&#45;&gt;[root] module.google_computer_instance (expand) -->
<g id="edge19" class="edge">
<title>[root] module.google_computer_instance.var.network_interface (expand)&#45;&gt;[root] module.google_computer_instance (expand)</title>
<path fill="none" stroke="black" d="M3535.25,-77.12C3497.6,-75.35 3459.13,-73.59 3422.76,-72 3018.39,-54.32 2916.95,-57.62 2512.76,-36 2489,-34.73 2463.99,-33.23 2439.32,-31.66"/>
<polygon fill="black" stroke="black" points="2439.35,-28.16 2429.15,-31.01 2438.9,-35.14 2439.35,-28.16"/>
</g>
<!-- [root] provider[&quot;registry.terraform.io/hashicorp/google&quot;] (close) -->
<g id="node18" class="node">
<title>[root] provider[&quot;registry.terraform.io/hashicorp/google&quot;] (close)</title>
<ellipse fill="none" stroke="black" cx="2397.76" cy="-234" rx="304.65" ry="18"/>
<text text-anchor="middle" x="2397.76" y="-230.3" font-family="Times,serif" font-size="14.00">[root] provider[&quot;registry.terraform.io/hashicorp/google&quot;] (close)</text>
</g>
<!-- [root] provider[&quot;registry.terraform.io/hashicorp/google&quot;] (close)&#45;&gt;[root] module.google_computer_instance.google_compute_instance.vm_instance (expand) -->
<g id="edge22" class="edge">
<title>[root] provider[&quot;registry.terraform.io/hashicorp/google&quot;] (close)&#45;&gt;[root] module.google_computer_instance.google_compute_instance.vm_instance (expand)</title>
<path fill="none" stroke="black" d="M2320.16,-216.59C2271.43,-206.28 2208.39,-192.95 2157.37,-182.16"/>
<polygon fill="black" stroke="black" points="2157.85,-178.68 2147.34,-180.04 2156.4,-185.53 2157.85,-178.68"/>
</g>
<!-- [root] root -->
<g id="node19" class="node">
<title>[root] root</title>
<ellipse fill="none" stroke="black" cx="2179.76" cy="-450" rx="58.49" ry="18"/>
<text text-anchor="middle" x="2179.76" y="-446.3" font-family="Times,serif" font-size="14.00">[root] root</text>
</g>
<!-- [root] root&#45;&gt;[root] meta.count&#45;boundary (EachMode fixup) -->
<g id="edge23" class="edge">
<title>[root] root&#45;&gt;[root] meta.count&#45;boundary (EachMode fixup)</title>
<path fill="none" stroke="black" d="M2151.88,-433.98C2133.89,-424.3 2110.2,-411.54 2090.17,-400.76"/>
<polygon fill="black" stroke="black" points="2091.72,-397.62 2081.26,-395.96 2088.4,-403.78 2091.72,-397.62"/>
</g>
<!-- [root] root&#45;&gt;[root] provider[&quot;registry.terraform.io/hashicorp/google&quot;] (close) -->
<g id="edge24" class="edge">
<title>[root] root&#45;&gt;[root] provider[&quot;registry.terraform.io/hashicorp/google&quot;] (close)</title>
<path fill="none" stroke="black" d="M2215.31,-435.45C2236.14,-426.37 2262.14,-412.97 2281.76,-396 2327.5,-356.46 2365.05,-295.47 2384.14,-261.02"/>
<polygon fill="black" stroke="black" points="2387.31,-262.5 2389.02,-252.05 2381.17,-259.15 2387.31,-262.5"/>
</g>
</g>
</svg>
