<?xml version="1.0" encoding="UTF-8" standalone="no"?>
<!DOCTYPE svg PUBLIC "-//W3C//DTD SVG 1.1//EN"
 "http://www.w3.org/Graphics/SVG/1.1/DTD/svg11.dtd">
<!-- Generated by graphviz version 2.43.0 (0)
 -->
<!-- Title: %3 Pages: 1 -->
<svg width="1082pt" height="260pt"
 viewBox="0.00 0.00 1081.75 260.00" xmlns="http://www.w3.org/2000/svg" xmlns:xlink="http://www.w3.org/1999/xlink">
<g id="graph0" class="graph" transform="scale(1 1) rotate(0) translate(4 256)">
<title>%3</title>
<polygon fill="white" stroke="transparent" points="-4,4 -4,-256 1077.75,-256 1077.75,4 -4,4"/>
<!-- [root] google_compute_instance.vm_instance (expand) -->
<g id="node1" class="node">
<title>[root] google_compute_instance.vm_instance (expand)</title>
<polygon fill="none" stroke="black" points="641.93,-108 349.93,-108 349.93,-72 641.93,-72 641.93,-108"/>
<text text-anchor="middle" x="495.93" y="-86.3" font-family="Times,serif" font-size="14.00">google_compute_instance.vm_instance</text>
</g>
<!-- [root] provider[&quot;registry.terraform.io/hashicorp/google&quot;] -->
<g id="node2" class="node">
<title>[root] provider[&quot;registry.terraform.io/hashicorp/google&quot;]</title>
<polygon fill="none" stroke="black" points="495.93,-36 152.4,-18 495.93,0 839.46,-18 495.93,-36"/>
<text text-anchor="middle" x="495.93" y="-14.3" font-family="Times,serif" font-size="14.00">provider[&quot;registry.terraform.io/hashicorp/google&quot;]</text>
</g>
<!-- [root] google_compute_instance.vm_instance (expand)&#45;&gt;[root] provider[&quot;registry.terraform.io/hashicorp/google&quot;] -->
<g id="edge1" class="edge">
<title>[root] google_compute_instance.vm_instance (expand)&#45;&gt;[root] provider[&quot;registry.terraform.io/hashicorp/google&quot;]</title>
<path fill="none" stroke="black" d="M495.93,-71.7C495.93,-63.98 495.93,-54.71 495.93,-46.11"/>
<polygon fill="black" stroke="black" points="499.43,-46.1 495.93,-36.1 492.43,-46.1 499.43,-46.1"/>
</g>
<!-- [root] meta.count&#45;boundary (EachMode fixup) -->
<g id="node3" class="node">
<title>[root] meta.count&#45;boundary (EachMode fixup)</title>
<ellipse fill="none" stroke="black" cx="222.93" cy="-162" rx="222.86" ry="18"/>
<text text-anchor="middle" x="222.93" y="-158.3" font-family="Times,serif" font-size="14.00">[root] meta.count&#45;boundary (EachMode fixup)</text>
</g>
<!-- [root] meta.count&#45;boundary (EachMode fixup)&#45;&gt;[root] google_compute_instance.vm_instance (expand) -->
<g id="edge2" class="edge">
<title>[root] meta.count&#45;boundary (EachMode fixup)&#45;&gt;[root] google_compute_instance.vm_instance (expand)</title>
<path fill="none" stroke="black" d="M286.59,-144.68C326.27,-134.5 377.55,-121.35 419.43,-110.62"/>
<polygon fill="black" stroke="black" points="420.49,-113.96 429.31,-108.08 418.75,-107.18 420.49,-113.96"/>
</g>
<!-- [root] provider[&quot;registry.terraform.io/hashicorp/google&quot;] (close) -->
<g id="node4" class="node">
<title>[root] provider[&quot;registry.terraform.io/hashicorp/google&quot;] (close)</title>
<ellipse fill="none" stroke="black" cx="768.93" cy="-162" rx="304.65" ry="18"/>
<text text-anchor="middle" x="768.93" y="-158.3" font-family="Times,serif" font-size="14.00">[root] provider[&quot;registry.terraform.io/hashicorp/google&quot;] (close)</text>
</g>
<!-- [root] provider[&quot;registry.terraform.io/hashicorp/google&quot;] (close)&#45;&gt;[root] google_compute_instance.vm_instance (expand) -->
<g id="edge3" class="edge">
<title>[root] provider[&quot;registry.terraform.io/hashicorp/google&quot;] (close)&#45;&gt;[root] google_compute_instance.vm_instance (expand)</title>
<path fill="none" stroke="black" d="M703.89,-144.32C664.32,-134.18 613.6,-121.17 572.15,-110.54"/>
<polygon fill="black" stroke="black" points="572.93,-107.13 562.37,-108.04 571.19,-113.91 572.93,-107.13"/>
</g>
<!-- [root] root -->
<g id="node5" class="node">
<title>[root] root</title>
<ellipse fill="none" stroke="black" cx="495.93" cy="-234" rx="58.49" ry="18"/>
<text text-anchor="middle" x="495.93" y="-230.3" font-family="Times,serif" font-size="14.00">[root] root</text>
</g>
<!-- [root] root&#45;&gt;[root] meta.count&#45;boundary (EachMode fixup) -->
<g id="edge4" class="edge">
<title>[root] root&#45;&gt;[root] meta.count&#45;boundary (EachMode fixup)</title>
<path fill="none" stroke="black" d="M452.37,-221.83C410.38,-211.07 346.06,-194.57 296.19,-181.78"/>
<polygon fill="black" stroke="black" points="296.97,-178.37 286.42,-179.28 295.23,-185.15 296.97,-178.37"/>
</g>
<!-- [root] root&#45;&gt;[root] provider[&quot;registry.terraform.io/hashicorp/google&quot;] (close) -->
<g id="edge5" class="edge">
<title>[root] root&#45;&gt;[root] provider[&quot;registry.terraform.io/hashicorp/google&quot;] (close)</title>
<path fill="none" stroke="black" d="M539.49,-221.83C581.12,-211.16 644.72,-194.85 694.41,-182.11"/>
<polygon fill="black" stroke="black" points="695.34,-185.48 704.15,-179.61 693.6,-178.7 695.34,-185.48"/>
</g>
</g>
</svg>
