<?xml version="1.0" encoding="UTF-8" standalone="no"?>
<!DOCTYPE svg PUBLIC "-//W3C//DTD SVG 1.1//EN"
 "http://www.w3.org/Graphics/SVG/1.1/DTD/svg11.dtd">
<!-- Generated by graphviz version 2.43.0 (0)
 -->
<!-- Title: %3 Pages: 1 -->
<svg width="4823pt" height="476pt"
 viewBox="0.00 0.00 4823.43 476.00" xmlns="http://www.w3.org/2000/svg" xmlns:xlink="http://www.w3.org/1999/xlink">
<g id="graph0" class="graph" transform="scale(1 1) rotate(0) translate(4 472)">
<title>%3</title>
<polygon fill="white" stroke="transparent" points="-4,4 -4,-472 4819.43,-472 4819.43,4 -4,4"/>
<!-- [root] module.google_computer_instance.google_compute_instance.vm_instance (expand) -->
<g id="node1" class="node">
<title>[root] module.google_computer_instance.google_compute_instance.vm_instance (expand)</title>
<polygon fill="none" stroke="black" points="2688.76,-180 2146.76,-180 2146.76,-144 2688.76,-144 2688.76,-180"/>
<text text-anchor="middle" x="2417.76" y="-158.3" font-family="Times,serif" font-size="14.00">module.google_computer_instance.google_compute_instance.vm_instance</text>
</g>
<!-- [root] provider[&quot;registry.terraform.io/hashicorp/google&quot;] -->
<g id="node3" class="node">
<title>[root] provider[&quot;registry.terraform.io/hashicorp/google&quot;]</title>
<polygon fill="none" stroke="black" points="343.76,-108 0.24,-90 343.76,-72 687.29,-90 343.76,-108"/>
<text text-anchor="middle" x="343.76" y="-86.3" font-family="Times,serif" font-size="14.00">provider[&quot;registry.terraform.io/hashicorp/google&quot;]</text>
</g>
<!-- [root] module.google_computer_instance.google_compute_instance.vm_instance (expand)&#45;&gt;[root] provider[&quot;registry.terraform.io/hashicorp/google&quot;] -->
<g id="edge10" class="edge">
<title>[root] module.google_computer_instance.google_compute_instance.vm_instance (expand)&#45;&gt;[root] provider[&quot;registry.terraform.io/hashicorp/google&quot;]</title>
<path fill="none" stroke="black" d="M2146.47,-154.1C1807.31,-145.14 1209.02,-128.22 696.76,-108 638.35,-105.69 574.52,-102.75 517.4,-99.96"/>
<polygon fill="black" stroke="black" points="517.34,-96.45 507.18,-99.46 517,-103.45 517.34,-96.45"/>
</g>
<!-- [root] module.google_computer_instance.var.boot_image (expand) -->
<g id="node13" class="node">
<title>[root] module.google_computer_instance.var.boot_image (expand)</title>
<ellipse fill="none" stroke="black" cx="1021.76" cy="-90" rx="315.74" ry="18"/>
<text text-anchor="middle" x="1021.76" y="-86.3" font-family="Times,serif" font-size="14.00">[root] module.google_computer_instance.var.boot_image (expand)</text>
</g>
<!-- [root] module.google_computer_instance.google_compute_instance.vm_instance (expand)&#45;&gt;[root] module.google_computer_instance.var.boot_image (expand) -->
<g id="edge4" class="edge">
<title>[root] module.google_computer_instance.google_compute_instance.vm_instance (expand)&#45;&gt;[root] module.google_computer_instance.var.boot_image (expand)</title>
<path fill="none" stroke="black" d="M2146.5,-147.79C1929.98,-137.19 1618.91,-121.85 1346.76,-108 1317.11,-106.49 1285.92,-104.88 1255.1,-103.28"/>
<polygon fill="black" stroke="black" points="1255.27,-99.79 1245.1,-102.77 1254.91,-106.78 1255.27,-99.79"/>
</g>
<!-- [root] module.google_computer_instance.var.gce_ssh_pub_key_file (expand) -->
<g id="node14" class="node">
<title>[root] module.google_computer_instance.var.gce_ssh_pub_key_file (expand)</title>
<ellipse fill="none" stroke="black" cx="1715.76" cy="-90" rx="360.14" ry="18"/>
<text text-anchor="middle" x="1715.76" y="-86.3" font-family="Times,serif" font-size="14.00">[root] module.google_computer_instance.var.gce_ssh_pub_key_file (expand)</text>
</g>
<!-- [root] module.google_computer_instance.google_compute_instance.vm_instance (expand)&#45;&gt;[root] module.google_computer_instance.var.gce_ssh_pub_key_file (expand) -->
<g id="edge5" class="edge">
<title>[root] module.google_computer_instance.google_compute_instance.vm_instance (expand)&#45;&gt;[root] module.google_computer_instance.var.gce_ssh_pub_key_file (expand)</title>
<path fill="none" stroke="black" d="M2246.93,-143.97C2135.06,-132.81 1989.69,-118.31 1879.32,-107.31"/>
<polygon fill="black" stroke="black" points="1879.38,-103.8 1869.09,-106.29 1878.69,-110.76 1879.38,-103.8"/>
</g>
<!-- [root] module.google_computer_instance.var.gce_ssh_user (expand) -->
<g id="node15" class="node">
<title>[root] module.google_computer_instance.var.gce_ssh_user (expand)</title>
<ellipse fill="none" stroke="black" cx="2417.76" cy="-90" rx="323.84" ry="18"/>
<text text-anchor="middle" x="2417.76" y="-86.3" font-family="Times,serif" font-size="14.00">[root] module.google_computer_instance.var.gce_ssh_user (expand)</text>
</g>
<!-- [root] module.google_computer_instance.google_compute_instance.vm_instance (expand)&#45;&gt;[root] module.google_computer_instance.var.gce_ssh_user (expand) -->
<g id="edge6" class="edge">
<title>[root] module.google_computer_instance.google_compute_instance.vm_instance (expand)&#45;&gt;[root] module.google_computer_instance.var.gce_ssh_user (expand)</title>
<path fill="none" stroke="black" d="M2417.76,-143.7C2417.76,-135.98 2417.76,-126.71 2417.76,-118.11"/>
<polygon fill="black" stroke="black" points="2421.26,-118.1 2417.76,-108.1 2414.26,-118.1 2421.26,-118.1"/>
</g>
<!-- [root] module.google_computer_instance.var.machine_type (expand) -->
<g id="node16" class="node">
<title>[root] module.google_computer_instance.var.machine_type (expand)</title>
<ellipse fill="none" stroke="black" cx="3086.76" cy="-90" rx="326.84" ry="18"/>
<text text-anchor="middle" x="3086.76" y="-86.3" font-family="Times,serif" font-size="14.00">[root] module.google_computer_instance.var.machine_type (expand)</text>
</g>
<!-- [root] module.google_computer_instance.google_compute_instance.vm_instance (expand)&#45;&gt;[root] module.google_computer_instance.var.machine_type (expand) -->
<g id="edge7" class="edge">
<title>[root] module.google_computer_instance.google_compute_instance.vm_instance (expand)&#45;&gt;[root] module.google_computer_instance.var.machine_type (expand)</title>
<path fill="none" stroke="black" d="M2580.57,-143.97C2687.54,-132.77 2826.65,-118.22 2931.97,-107.2"/>
<polygon fill="black" stroke="black" points="2932.47,-110.66 2942.05,-106.14 2931.74,-103.7 2932.47,-110.66"/>
</g>
<!-- [root] module.google_computer_instance.var.network_interface (expand) -->
<g id="node17" class="node">
<title>[root] module.google_computer_instance.var.network_interface (expand)</title>
<ellipse fill="none" stroke="black" cx="3777.76" cy="-90" rx="346.34" ry="18"/>
<text text-anchor="middle" x="3777.76" y="-86.3" font-family="Times,serif" font-size="14.00">[root] module.google_computer_instance.var.network_interface (expand)</text>
</g>
<!-- [root] module.google_computer_instance.google_compute_instance.vm_instance (expand)&#45;&gt;[root] module.google_computer_instance.var.network_interface (expand) -->
<g id="edge8" class="edge">
<title>[root] module.google_computer_instance.google_compute_instance.vm_instance (expand)&#45;&gt;[root] module.google_computer_instance.var.network_interface (expand)</title>
<path fill="none" stroke="black" d="M2688.9,-147.04C2934.6,-134.4 3293.57,-115.92 3531.29,-103.69"/>
<polygon fill="black" stroke="black" points="3531.66,-107.17 3541.46,-103.16 3531.3,-100.18 3531.66,-107.17"/>
</g>
<!-- [root] module.google_computer_instance.var.ssh_private_key (expand) -->
<g id="node18" class="node">
<title>[root] module.google_computer_instance.var.ssh_private_key (expand)</title>
<ellipse fill="none" stroke="black" cx="4478.76" cy="-90" rx="336.84" ry="18"/>
<text text-anchor="middle" x="4478.76" y="-86.3" font-family="Times,serif" font-size="14.00">[root] module.google_computer_instance.var.ssh_private_key (expand)</text>
</g>
<!-- [root] module.google_computer_instance.google_compute_instance.vm_instance (expand)&#45;&gt;[root] module.google_computer_instance.var.ssh_private_key (expand) -->
<g id="edge9" class="edge">
<title>[root] module.google_computer_instance.google_compute_instance.vm_instance (expand)&#45;&gt;[root] module.google_computer_instance.var.ssh_private_key (expand)</title>
<path fill="none" stroke="black" d="M2688.86,-154.15C3026.96,-145.25 3622.67,-128.41 4132.76,-108 4165.99,-106.67 4201.01,-105.12 4235.49,-103.51"/>
<polygon fill="black" stroke="black" points="4235.85,-107 4245.68,-103.03 4235.53,-100.01 4235.85,-107"/>
</g>
<!-- [root] output.network -->
<g id="node2" class="node">
<title>[root] output.network</title>
<polygon fill="none" stroke="black" points="2144.26,-324 2023.26,-324 2023.26,-288 2150.26,-288 2150.26,-318 2144.26,-324"/>
<polyline fill="none" stroke="black" points="2144.26,-324 2144.26,-318 "/>
<polyline fill="none" stroke="black" points="2150.26,-318 2144.26,-318 "/>
<text text-anchor="middle" x="2086.76" y="-302.3" font-family="Times,serif" font-size="14.00">output.network</text>
</g>
<!-- [root] module.google_computer_instance.output.vm_public_ip (expand) -->
<g id="node12" class="node">
<title>[root] module.google_computer_instance.output.vm_public_ip (expand)</title>
<ellipse fill="none" stroke="black" cx="2086.76" cy="-234" rx="339.04" ry="18"/>
<text text-anchor="middle" x="2086.76" y="-230.3" font-family="Times,serif" font-size="14.00">[root] module.google_computer_instance.output.vm_public_ip (expand)</text>
</g>
<!-- [root] output.network&#45;&gt;[root] module.google_computer_instance.output.vm_public_ip (expand) -->
<g id="edge24" class="edge">
<title>[root] output.network&#45;&gt;[root] module.google_computer_instance.output.vm_public_ip (expand)</title>
<path fill="none" stroke="black" d="M2086.76,-287.7C2086.76,-279.98 2086.76,-270.71 2086.76,-262.11"/>
<polygon fill="black" stroke="black" points="2090.26,-262.1 2086.76,-252.1 2083.26,-262.1 2090.26,-262.1"/>
</g>
<!-- [root] var.boot_image -->
<g id="node4" class="node">
<title>[root] var.boot_image</title>
<polygon fill="none" stroke="black" points="1078.26,-36 959.26,-36 959.26,0 1084.26,0 1084.26,-30 1078.26,-36"/>
<polyline fill="none" stroke="black" points="1078.26,-36 1078.26,-30 "/>
<polyline fill="none" stroke="black" points="1084.26,-30 1078.26,-30 "/>
<text text-anchor="middle" x="1021.76" y="-14.3" font-family="Times,serif" font-size="14.00">var.boot_image</text>
</g>
<!-- [root] var.machine_type -->
<g id="node5" class="node">
<title>[root] var.machine_type</title>
<polygon fill="none" stroke="black" points="3151.26,-36 3016.26,-36 3016.26,0 3157.26,0 3157.26,-30 3151.26,-36"/>
<polyline fill="none" stroke="black" points="3151.26,-36 3151.26,-30 "/>
<polyline fill="none" stroke="black" points="3157.26,-30 3151.26,-30 "/>
<text text-anchor="middle" x="3086.76" y="-14.3" font-family="Times,serif" font-size="14.00">var.machine_type</text>
</g>
<!-- [root] var.network -->
<g id="node6" class="node">
<title>[root] var.network</title>
<polygon fill="none" stroke="black" points="3822.26,-36 3727.26,-36 3727.26,0 3828.26,0 3828.26,-30 3822.26,-36"/>
<polyline fill="none" stroke="black" points="3822.26,-36 3822.26,-30 "/>
<polyline fill="none" stroke="black" points="3828.26,-30 3822.26,-30 "/>
<text text-anchor="middle" x="3777.76" y="-14.3" font-family="Times,serif" font-size="14.00">var.network</text>
</g>
<!-- [root] var.ssh_private_key -->
<g id="node7" class="node">
<title>[root] var.ssh_private_key</title>
<polygon fill="none" stroke="black" points="4550.76,-36 4400.76,-36 4400.76,0 4556.76,0 4556.76,-30 4550.76,-36"/>
<polyline fill="none" stroke="black" points="4550.76,-36 4550.76,-30 "/>
<polyline fill="none" stroke="black" points="4556.76,-30 4550.76,-30 "/>
<text text-anchor="middle" x="4478.76" y="-14.3" font-family="Times,serif" font-size="14.00">var.ssh_private_key</text>
</g>
<!-- [root] var.ssh_pub_key -->
<g id="node8" class="node">
<title>[root] var.ssh_pub_key</title>
<polygon fill="none" stroke="black" points="1775.76,-36 1649.76,-36 1649.76,0 1781.76,0 1781.76,-30 1775.76,-36"/>
<polyline fill="none" stroke="black" points="1775.76,-36 1775.76,-30 "/>
<polyline fill="none" stroke="black" points="1781.76,-30 1775.76,-30 "/>
<text text-anchor="middle" x="1715.76" y="-14.3" font-family="Times,serif" font-size="14.00">var.ssh_pub_key</text>
</g>
<!-- [root] var.ssh_user -->
<g id="node9" class="node">
<title>[root] var.ssh_user</title>
<polygon fill="none" stroke="black" points="2464.26,-36 2365.26,-36 2365.26,0 2470.26,0 2470.26,-30 2464.26,-36"/>
<polyline fill="none" stroke="black" points="2464.26,-36 2464.26,-30 "/>
<polyline fill="none" stroke="black" points="2470.26,-30 2464.26,-30 "/>
<text text-anchor="middle" x="2417.76" y="-14.3" font-family="Times,serif" font-size="14.00">var.ssh_user</text>
</g>
<!-- [root] meta.count&#45;boundary (EachMode fixup) -->
<g id="node10" class="node">
<title>[root] meta.count&#45;boundary (EachMode fixup)</title>
<ellipse fill="none" stroke="black" cx="2400.76" cy="-378" rx="222.86" ry="18"/>
<text text-anchor="middle" x="2400.76" y="-374.3" font-family="Times,serif" font-size="14.00">[root] meta.count&#45;boundary (EachMode fixup)</text>
</g>
<!-- [root] meta.count&#45;boundary (EachMode fixup)&#45;&gt;[root] output.network -->
<g id="edge2" class="edge">
<title>[root] meta.count&#45;boundary (EachMode fixup)&#45;&gt;[root] output.network</title>
<path fill="none" stroke="black" d="M2326.29,-361.02C2280.83,-351.18 2221.27,-338.17 2160.17,-324.3"/>
<polygon fill="black" stroke="black" points="2160.88,-320.88 2150.36,-322.07 2159.33,-327.7 2160.88,-320.88"/>
</g>
<!-- [root] module.google_computer_instance (close) -->
<g id="node11" class="node">
<title>[root] module.google_computer_instance (close)</title>
<ellipse fill="none" stroke="black" cx="2400.76" cy="-306" rx="232.86" ry="18"/>
<text text-anchor="middle" x="2400.76" y="-302.3" font-family="Times,serif" font-size="14.00">[root] module.google_computer_instance (close)</text>
</g>
<!-- [root] meta.count&#45;boundary (EachMode fixup)&#45;&gt;[root] module.google_computer_instance (close) -->
<g id="edge1" class="edge">
<title>[root] meta.count&#45;boundary (EachMode fixup)&#45;&gt;[root] module.google_computer_instance (close)</title>
<path fill="none" stroke="black" d="M2400.76,-359.7C2400.76,-351.98 2400.76,-342.71 2400.76,-334.11"/>
<polygon fill="black" stroke="black" points="2404.26,-334.1 2400.76,-324.1 2397.26,-334.1 2404.26,-334.1"/>
</g>
<!-- [root] module.google_computer_instance (close)&#45;&gt;[root] module.google_computer_instance.output.vm_public_ip (expand) -->
<g id="edge3" class="edge">
<title>[root] module.google_computer_instance (close)&#45;&gt;[root] module.google_computer_instance.output.vm_public_ip (expand)</title>
<path fill="none" stroke="black" d="M2328.33,-288.85C2281.48,-278.41 2220.31,-264.77 2171.25,-253.83"/>
<polygon fill="black" stroke="black" points="2171.81,-250.37 2161.29,-251.61 2170.29,-257.21 2171.81,-250.37"/>
</g>
<!-- [root] module.google_computer_instance.output.vm_public_ip (expand)&#45;&gt;[root] module.google_computer_instance.google_compute_instance.vm_instance (expand) -->
<g id="edge11" class="edge">
<title>[root] module.google_computer_instance.output.vm_public_ip (expand)&#45;&gt;[root] module.google_computer_instance.google_compute_instance.vm_instance (expand)</title>
<path fill="none" stroke="black" d="M2165.21,-216.41C2213.87,-206.12 2276.56,-192.86 2327.31,-182.13"/>
<polygon fill="black" stroke="black" points="2328.24,-185.51 2337.3,-180.02 2326.79,-178.66 2328.24,-185.51"/>
</g>
<!-- [root] module.google_computer_instance.var.boot_image (expand)&#45;&gt;[root] var.boot_image -->
<g id="edge13" class="edge">
<title>[root] module.google_computer_instance.var.boot_image (expand)&#45;&gt;[root] var.boot_image</title>
<path fill="none" stroke="black" d="M1021.76,-71.7C1021.76,-63.98 1021.76,-54.71 1021.76,-46.11"/>
<polygon fill="black" stroke="black" points="1025.26,-46.1 1021.76,-36.1 1018.26,-46.1 1025.26,-46.1"/>
</g>
<!-- [root] module.google_computer_instance (expand) -->
<g id="node19" class="node">
<title>[root] module.google_computer_instance (expand)</title>
<ellipse fill="none" stroke="black" cx="2743.76" cy="-18" rx="243.16" ry="18"/>
<text text-anchor="middle" x="2743.76" y="-14.3" font-family="Times,serif" font-size="14.00">[root] module.google_computer_instance (expand)</text>
</g>
<!-- [root] module.google_computer_instance.var.boot_image (expand)&#45;&gt;[root] module.google_computer_instance (expand) -->
<g id="edge12" class="edge">
<title>[root] module.google_computer_instance.var.boot_image (expand)&#45;&gt;[root] module.google_computer_instance (expand)</title>
<path fill="none" stroke="black" d="M1240.26,-76.96C1275.85,-75.17 1312.33,-73.45 1346.76,-72 1849.69,-50.85 1975.98,-60.12 2478.76,-36 2505.73,-34.71 2534.23,-33.12 2562.14,-31.43"/>
<polygon fill="black" stroke="black" points="2562.62,-34.91 2572.39,-30.81 2562.2,-27.92 2562.62,-34.91"/>
</g>
<!-- [root] module.google_computer_instance.var.gce_ssh_pub_key_file (expand)&#45;&gt;[root] var.ssh_pub_key -->
<g id="edge15" class="edge">
<title>[root] module.google_computer_instance.var.gce_ssh_pub_key_file (expand)&#45;&gt;[root] var.ssh_pub_key</title>
<path fill="none" stroke="black" d="M1715.76,-71.7C1715.76,-63.98 1715.76,-54.71 1715.76,-46.11"/>
<polygon fill="black" stroke="black" points="1719.26,-46.1 1715.76,-36.1 1712.26,-46.1 1719.26,-46.1"/>
</g>
<!-- [root] module.google_computer_instance.var.gce_ssh_pub_key_file (expand)&#45;&gt;[root] module.google_computer_instance (expand) -->
<g id="edge14" class="edge">
<title>[root] module.google_computer_instance.var.gce_ssh_pub_key_file (expand)&#45;&gt;[root] module.google_computer_instance (expand)</title>
<path fill="none" stroke="black" d="M1919.48,-75.13C2106.62,-62.39 2381.44,-43.67 2561.48,-31.41"/>
<polygon fill="black" stroke="black" points="2561.85,-34.9 2571.59,-30.72 2561.37,-27.91 2561.85,-34.9"/>
</g>
<!-- [root] module.google_computer_instance.var.gce_ssh_user (expand)&#45;&gt;[root] var.ssh_user -->
<g id="edge17" class="edge">
<title>[root] module.google_computer_instance.var.gce_ssh_user (expand)&#45;&gt;[root] var.ssh_user</title>
<path fill="none" stroke="black" d="M2417.76,-71.7C2417.76,-63.98 2417.76,-54.71 2417.76,-46.11"/>
<polygon fill="black" stroke="black" points="2421.26,-46.1 2417.76,-36.1 2414.26,-46.1 2421.26,-46.1"/>
</g>
<!-- [root] module.google_computer_instance.var.gce_ssh_user (expand)&#45;&gt;[root] module.google_computer_instance (expand) -->
<g id="edge16" class="edge">
<title>[root] module.google_computer_instance.var.gce_ssh_user (expand)&#45;&gt;[root] module.google_computer_instance (expand)</title>
<path fill="none" stroke="black" d="M2494.61,-72.5C2543.85,-61.93 2607.8,-48.19 2658.59,-37.29"/>
<polygon fill="black" stroke="black" points="2659.52,-40.67 2668.56,-35.15 2658.05,-33.83 2659.52,-40.67"/>
</g>
<!-- [root] module.google_computer_instance.var.machine_type (expand)&#45;&gt;[root] var.machine_type -->
<g id="edge19" class="edge">
<title>[root] module.google_computer_instance.var.machine_type (expand)&#45;&gt;[root] var.machine_type</title>
<path fill="none" stroke="black" d="M3086.76,-71.7C3086.76,-63.98 3086.76,-54.71 3086.76,-46.11"/>
<polygon fill="black" stroke="black" points="3090.26,-46.1 3086.76,-36.1 3083.26,-46.1 3090.26,-46.1"/>
</g>
<!-- [root] module.google_computer_instance.var.machine_type (expand)&#45;&gt;[root] module.google_computer_instance (expand) -->
<g id="edge18" class="edge">
<title>[root] module.google_computer_instance.var.machine_type (expand)&#45;&gt;[root] module.google_computer_instance (expand)</title>
<path fill="none" stroke="black" d="M3005.91,-72.5C2953.8,-61.86 2886.01,-48.03 2832.43,-37.09"/>
<polygon fill="black" stroke="black" points="2833.09,-33.66 2822.6,-35.09 2831.69,-40.52 2833.09,-33.66"/>
</g>
<!-- [root] module.google_computer_instance.var.network_interface (expand)&#45;&gt;[root] var.network -->
<g id="edge21" class="edge">
<title>[root] module.google_computer_instance.var.network_interface (expand)&#45;&gt;[root] var.network</title>
<path fill="none" stroke="black" d="M3777.76,-71.7C3777.76,-63.98 3777.76,-54.71 3777.76,-46.11"/>
<polygon fill="black" stroke="black" points="3781.26,-46.1 3777.76,-36.1 3774.26,-46.1 3781.26,-46.1"/>
</g>
<!-- [root] module.google_computer_instance.var.network_interface (expand)&#45;&gt;[root] module.google_computer_instance (expand) -->
<g id="edge20" class="edge">
<title>[root] module.google_computer_instance.var.network_interface (expand)&#45;&gt;[root] module.google_computer_instance (expand)</title>
<path fill="none" stroke="black" d="M3576.25,-75.36C3387.81,-62.6 3108.84,-43.71 2926.67,-31.38"/>
<polygon fill="black" stroke="black" points="2926.66,-27.87 2916.44,-30.69 2926.18,-34.86 2926.66,-27.87"/>
</g>
<!-- [root] module.google_computer_instance.var.ssh_private_key (expand)&#45;&gt;[root] var.ssh_private_key -->
<g id="edge23" class="edge">
<title>[root] module.google_computer_instance.var.ssh_private_key (expand)&#45;&gt;[root] var.ssh_private_key</title>
<path fill="none" stroke="black" d="M4478.76,-71.7C4478.76,-63.98 4478.76,-54.71 4478.76,-46.11"/>
<polygon fill="black" stroke="black" points="4482.26,-46.1 4478.76,-36.1 4475.26,-46.1 4482.26,-46.1"/>
</g>
<!-- [root] module.google_computer_instance.var.ssh_private_key (expand)&#45;&gt;[root] module.google_computer_instance (expand) -->
<g id="edge22" class="edge">
<title>[root] module.google_computer_instance.var.ssh_private_key (expand)&#45;&gt;[root] module.google_computer_instance (expand)</title>
<path fill="none" stroke="black" d="M4245.68,-77C4207.94,-75.22 4169.27,-73.48 4132.76,-72 3632.92,-51.72 3507.44,-60.08 3007.76,-36 2981,-34.71 2952.73,-33.13 2925.02,-31.45"/>
<polygon fill="black" stroke="black" points="2925.04,-27.94 2914.84,-30.83 2924.61,-34.93 2925.04,-27.94"/>
</g>
<!-- [root] provider[&quot;registry.terraform.io/hashicorp/google&quot;] (close) -->
<g id="node20" class="node">
<title>[root] provider[&quot;registry.terraform.io/hashicorp/google&quot;] (close)</title>
<ellipse fill="none" stroke="black" cx="2748.76" cy="-234" rx="304.65" ry="18"/>
<text text-anchor="middle" x="2748.76" y="-230.3" font-family="Times,serif" font-size="14.00">[root] provider[&quot;registry.terraform.io/hashicorp/google&quot;] (close)</text>
</g>
<!-- [root] provider[&quot;registry.terraform.io/hashicorp/google&quot;] (close)&#45;&gt;[root] module.google_computer_instance.google_compute_instance.vm_instance (expand) -->
<g id="edge25" class="edge">
<title>[root] provider[&quot;registry.terraform.io/hashicorp/google&quot;] (close)&#45;&gt;[root] module.google_computer_instance.google_compute_instance.vm_instance (expand)</title>
<path fill="none" stroke="black" d="M2671.16,-216.59C2622.43,-206.28 2559.39,-192.95 2508.37,-182.16"/>
<polygon fill="black" stroke="black" points="2508.85,-178.68 2498.34,-180.04 2507.4,-185.53 2508.85,-178.68"/>
</g>
<!-- [root] root -->
<g id="node21" class="node">
<title>[root] root</title>
<ellipse fill="none" stroke="black" cx="2530.76" cy="-450" rx="58.49" ry="18"/>
<text text-anchor="middle" x="2530.76" y="-446.3" font-family="Times,serif" font-size="14.00">[root] root</text>
</g>
<!-- [root] root&#45;&gt;[root] meta.count&#45;boundary (EachMode fixup) -->
<g id="edge26" class="edge">
<title>[root] root&#45;&gt;[root] meta.count&#45;boundary (EachMode fixup)</title>
<path fill="none" stroke="black" d="M2502.88,-433.98C2484.89,-424.3 2461.2,-411.54 2441.17,-400.76"/>
<polygon fill="black" stroke="black" points="2442.72,-397.62 2432.26,-395.96 2439.4,-403.78 2442.72,-397.62"/>
</g>
<!-- [root] root&#45;&gt;[root] provider[&quot;registry.terraform.io/hashicorp/google&quot;] (close) -->
<g id="edge27" class="edge">
<title>[root] root&#45;&gt;[root] provider[&quot;registry.terraform.io/hashicorp/google&quot;] (close)</title>
<path fill="none" stroke="black" d="M2566.31,-435.45C2587.14,-426.37 2613.14,-412.97 2632.76,-396 2678.5,-356.46 2716.05,-295.47 2735.14,-261.02"/>
<polygon fill="black" stroke="black" points="2738.31,-262.5 2740.02,-252.05 2732.17,-259.15 2738.31,-262.5"/>
</g>
</g>
</svg>
